<svg xmlns="http://www.w3.org/2000/svg" viewBox="0 0 128 128" role="img" aria-label="Field Viewer icon">
  <defs>
    <linearGradient id="bg" x1="22" x2="108" y1="18" y2="112" gradientUnits="userSpaceOnUse">
      <stop stop-color="#0b1320"/>
      <stop offset="1" stop-color="#03060c"/>
    </linearGradient>
    <filter id="glow" x="-40%" y="-40%" width="180%" height="180%">
      <feGaussianBlur stdDeviation="4" result="blur"/>
      <feMerge>
        <feMergeNode in="blur"/>
        <feMergeNode in="SourceGraphic"/>
      </feMerge>
    </filter>
  </defs>
  <rect x="8" y="8" width="112" height="112" rx="24" fill="url(#bg)"/>
  <path d="M26 83c12-29 27-43 45-43 16 0 30 10 42 29" fill="none" stroke="#203445" stroke-width="3" stroke-linecap="round"/>
  <path d="M22 93h84" stroke="#8cf0d4" stroke-width="3" stroke-linecap="round" opacity="0.42"/>
  <path d="M24 74c12-24 26-36 42-36 18 0 33 13 45 39" fill="none" stroke="#8cf0d4" stroke-width="6" stroke-linecap="round"/>
  <path d="M73 59l21 14-21 14" fill="none" stroke="#f5c77a" stroke-width="6" stroke-linecap="round" stroke-linejoin="round"/>
  <circle cx="44" cy="58" r="8" fill="#8cf0d4" filter="url(#glow)"/>
  <circle cx="70" cy="58" r="8" fill="#ff7aa8" filter="url(#glow)"/>
  <circle cx="96" cy="73" r="5" fill="#f5c77a" filter="url(#glow)"/>
  <path d="M33 30h62" stroke="#e7ecf1" stroke-width="4" stroke-linecap="round" opacity="0.86"/>
</svg>
